0
SECTION
2
HEADER
9
$INSUNITS
70
4
9
$ACADVER
1
AC1014
9
$HANDSEED
5
FFFF
0
ENDSEC
0
SECTION
2
TABLES
0
TABLE
2
VPORT
5
8
100
AcDbSymbolTable
0
ENDTAB
0
TABLE
2
LTYPE
5
5
100
AcDbSymbolTable
0
LTYPE
5
14
100
AcDbSymbolTableRecord
100
AcDbLinetypeTableRecord
2
BYBLOCK
70
0
0
LTYPE
5
15
100
AcDbSymbolTableRecord
100
AcDbLinetypeTableRecord
2
BYLAYER
70
0
0
LTYPE
5
16
100
AcDbSymbolTableRecord
100
AcDbLinetypeTableRecord
2
DASHED
70
0
3
Dashed __ __ __ __ __ __ __ __ __ __ __ __ __ _
72
65
73
2
40
0.75
49
0.5
74
0
49
-0.25
74
0
0
ENDTAB
0
TABLE
2
LAYER
5
2
100
AcDbSymbolTable
70
3
0
LAYER
5
50
100
AcDbSymbolTableRecord
100
AcDbLayerTableRecord
2
1
70
0
62
7
6
DASHED
0
LAYER
5
51
100
AcDbSymbolTableRecord
100
AcDbLayerTableRecord
2
0
70
0
62
7
6
CONTINUOUS
0
ENDTAB
0
TABLE
2
STYLE
5
3
100
AcDbSymbolTable
70
1
0
STYLE
5
11
100
AcDbSymbolTableRecord
100
AcDbTextStyleTableRecord
2
STANDARD
70
0
0
ENDTAB
0
TABLE
2
VIEW
5
6
100
AcDbSymbolTable
70
0
0
ENDTAB
0
TABLE
2
UCS
5
7
100
AcDbSymbolTable
70
0
0
ENDTAB
0
TABLE
2
APPID
5
9
100
AcDbSymbolTable
70
2
0
APPID
5
12
100
AcDbSymbolTableRecord
100
AcDbRegAppTableRecord
2
ACAD
70
0
0
ENDTAB
0
TABLE
2
DIMSTYLE
5
A
100
AcDbSymbolTable
70
1
0
ENDTAB
0
TABLE
2
BLOCK_RECORD
5
1
100
AcDbSymbolTable
70
1
0
BLOCK_RECORD
5
1F
100
AcDbSymbolTableRecord
100
AcDbBlockTableRecord
2
*MODEL_SPACE
0
BLOCK_RECORD
5
1B
100
AcDbSymbolTableRecord
100
AcDbBlockTableRecord
2
*PAPER_SPACE
0
ENDTAB
0
ENDSEC
0
SECTION
2
BLOCKS
0
BLOCK
5
20
100
AcDbEntity
100
AcDbBlockBegin
2
*MODEL_SPACE
0
ENDBLK
5
21
100
AcDbEntity
100
AcDbBlockEnd
0
BLOCK
5
1C
100
AcDbEntity
100
AcDbBlockBegin
2
*PAPER_SPACE
0
ENDBLK
5
1D
100
AcDbEntity
100
AcDbBlockEnd
0
ENDSEC
0
SECTION
2
ENTITIES
0
POINT
5
100
100
AcDbEntity
8
0
100
AcDbPoint
10
0
20
0
30
0
0
LWPOLYLINE
5
101
100
AcDbEntity
8
0
100
AcDbPolyline
90
32
70
1
43
0.0
10
0.19999999999994661
20
1.5000001346753769
42
0.41421359271579056
10
1.4999999999999427
20
0.20000000000000095
10
4.9424243050441641
20
0.19999999999999962
42
0.29821662669860655
10
6.1338939857326782
20
0.98000000000000176
42
-0.65465367070797853
10
12.916106014267324
20
0.98000000000000331
42
0.29821662669860849
10
14.107575694955841
20
0.20000000000000284
10
81.142424305044187
20
0.19999999999999962
42
0.29821662669860727
10
82.333893985732715
20
0.97999999999999288
42
-0.65465367070798053
10
89.116106014267316
20
0.98000000000000531
42
0.29821662669861226
10
90.307575694955844
20
0.20000000000001419
10
138.29242430504419
20
0.19999999999999962
42
0.29821662669860743
10
139.48389398573272
20
0.97999999999999332
42
-0.65465367070798053
10
146.26610601426731
20
0.98000000000000176
42
0.29821662669861188
10
147.45757569495584
20
0.20000000000001197
10
214.49242430504415
20
0.1999999999999999
42
0.29821662669861976
10
215.68389398573271
20
0.97999999999999976
42
-0.65465367070798353
10
222.46610601426735
20
0.98000000000000065
42
0.2982166266985925
10
223.65757569495588
20
0.19999999999999143
10
227.10000000000005
20
0.20000000000000739
42
0.41421356237309515
10
228.40000000000003
20
1.5000000000000009
10
228.40000000000003
20
79.462500000000261
42
0.41421350690246533
10
227.10000024620518
20
80.76250000000023
10
195.08257569495584
20
80.762500000000131
42
0.29821662669862381
10
193.89110601426728
20
79.982500000000229
42
-0.65465367070797353
10
187.10889398573275
20
79.982500000000186
42
0.29821662669859039
10
185.91742430504425
20
80.762500000000159
10
42.682575694955787
20
80.762500000000145
42
0.29821662669859716
10
41.491106014267274
20
79.982500000000172
42
-0.65465367070796932
10
34.708893985732693
20
79.982500000000158
42
0.29821662669859378
10
33.517424305044173
20
80.762500000000145
10
1.499999673531889
20
80.762500000000188
42
0.41421348881903319
10
0.19999999999996326
20
79.462500000000233
0
LINE
5
102
100
AcDbEntity
8
0
100
AcDbLine
10
23.562499999999993
20
76.450000000000045
30
1.1102230246251565e-15
11
0.49999999999992273
21
76.450000000000045
31
1.1102230246251565e-15
0
ARC
5
103
100
AcDbEntity
8
0
100
AcDbCircle
10
0.49999999999992273
20
76.950000000000045
30
1.1102230246251565e-15
40
0.5
210
0
220
0
230
1
100
AcDbArc
50
180
51
270
0
ARC
5
104
100
AcDbEntity
8
0
100
AcDbCircle
10
1.4999999999999276
20
79.462500000000361
30
0
40
1.5000000000000124
210
0
220
0
230
1
100
AcDbArc
50
90.000000000000142
51
180
0
LINE
5
105
100
AcDbEntity
8
0
100
AcDbLine
10
-7.8888083175779796e-14
20
76.950000000000045
30
0
11
-8.1463863669336291e-14
21
79.462500000000361
31
0
0
LINE
5
106
100
AcDbEntity
8
0
100
AcDbLine
10
1.4999999999999214
20
80.962500000000375
30
0
11
27.825000000000124
21
80.962500000000318
31
0
0
ARC
5
107
100
AcDbEntity
8
0
100
AcDbCircle
10
27.825000000000117
20
80.462500000000318
30
1.1102230246251565e-15
40
0.49999999999999822
210
0
220
-0
230
1
100
AcDbArc
50
0
51
90
0
LINE
5
108
100
AcDbEntity
8
0
100
AcDbLine
10
28.325000000000117
20
80.462500000000318
30
1.1102230246251565e-15
11
28.325000000000117
21
62.16250000000003
31
1.1102230246251565e-15
0
ARC
5
109
100
AcDbEntity
8
0
100
AcDbCircle
10
23.562499999999996
20
75.950000000000045
30
1.1102230246251565e-15
40
0.49999999999999378
210
0
220
0
230
1
100
AcDbArc
50
0
51
90.000000000000398
0
LINE
5
110
100
AcDbEntity
8
0
100
AcDbLine
10
24.0625
20
57.900000000000027
30
1.1102230246251565e-15
11
24.062499999999993
21
75.950000000000045
31
1.1102230246251565e-15
0
ARC
5
111
100
AcDbEntity
8
0
100
AcDbCircle
10
24.562500000000007
20
57.900000000000027
30
1.1102230246251565e-15
40
0.50000000000000711
210
0
220
0
230
1
100
AcDbArc
50
180
51
270
0
LINE
5
112
100
AcDbEntity
8
0
100
AcDbLine
10
190.25
20
57.400000000000013
30
1.1102230246251565e-15
11
24.562500000000007
21
57.400000000000027
31
1.1102230246251565e-15
0
ARC
5
113
100
AcDbEntity
8
0
100
AcDbCircle
10
28.825000000000113
20
62.16250000000003
30
1.1102230246251565e-15
40
0.49999999999999822
210
0
220
0
230
1
100
AcDbArc
50
180
51
270
0
LINE
5
114
100
AcDbEntity
8
0
100
AcDbLine
10
28.825000000000113
20
61.662500000000037
30
1.1102230246251565e-15
11
194.51250000000002
21
61.662500000000037
31
1.1102230246251565e-15
0
ARC
5
115
100
AcDbEntity
8
0
100
AcDbCircle
10
194.51250000000002
20
61.162500000000023
30
1.1102230246251565e-15
40
0.50000000000000711
210
0
220
-0
230
1
100
AcDbArc
50
0
51
90
0
LINE
5
116
100
AcDbEntity
8
0
100
AcDbLine
10
195.01250000000002
20
61.162500000000023
30
1.1102230246251565e-15
11
195.01250000000002
21
43.112500000000026
31
1.1102230246251565e-15
0
ARC
5
117
100
AcDbEntity
8
0
100
AcDbCircle
10
190.24999999999991
20
56.899999999999963
30
1.1102230246251565e-15
40
0.50000000000007816
210
0
220
-0
230
1
100
AcDbArc
50
0
51
89.999999999990237
0
LINE
5
118
100
AcDbEntity
8
0
100
AcDbLine
10
190.75
20
38.850000000000001
30
1.1102230246251565e-15
11
190.75
21
56.900000000000013
31
1.1102230246251565e-15
0
ARC
5
119
100
AcDbEntity
8
0
100
AcDbCircle
10
191.25
20
38.850000000000001
30
1.1102230246251565e-15
40
0.50000000000000711
210
0
220
0
230
1
100
AcDbArc
50
180
51
270
0
LINE
5
120
100
AcDbEntity
8
0
100
AcDbLine
10
228.10000000000002
20
38.350000000000001
30
1.1102230246251565e-15
11
191.25
21
38.350000000000001
31
1.1102230246251565e-15
0
ARC
5
121
100
AcDbEntity
8
0
100
AcDbCircle
10
195.5125000000001
20
43.112500000000082
30
1.1102230246251565e-15
40
0.50000000000007816
210
0
220
0
230
1
100
AcDbArc
50
180
51
269.99999999999346
0
LINE
5
122
100
AcDbEntity
8
0
100
AcDbLine
10
195.51250000000005
20
42.612500000000004
30
1.1102230246251565e-15
11
223.58750000000001
21
42.612499999999997
31
1.1102230246251565e-15
0
ARC
5
123
100
AcDbEntity
8
0
100
AcDbCircle
10
223.58749999999992
20
43.112500000000047
30
1.1102230246251565e-15
40
0.50000000000005151
210
0
220
0
230
1
100
AcDbArc
50
270.00000000000978
51
360
0
LINE
5
124
100
AcDbEntity
8
0
100
AcDbLine
10
224.08749999999998
20
43.112499999999997
30
1.1102230246251565e-15
11
224.08750000000012
21
80.462499999999935
31
1.1102230246251565e-15
0
ARC
5
125
100
AcDbEntity
8
0
100
AcDbCircle
10
228.10000000000002
20
38.850000000000001
30
1.1102230246251565e-15
40
0.49999999999999822
210
-0
220
0
230
1
100
AcDbArc
50
270
51
360
0
LINE
5
126
100
AcDbEntity
8
0
100
AcDbLine
10
228.60000000000002
20
79.462499999999935
30
0
11
228.60000000000002
21
38.849999999999994
31
0
0
ARC
5
127
100
AcDbEntity
8
0
100
AcDbCircle
10
227.10000000000008
20
79.462500000000006
30
0
40
1.4999999999999503
210
-0
220
0
230
1
100
AcDbArc
50
0
51
90.000000000001094
0
LINE
5
128
100
AcDbEntity
8
0
100
AcDbLine
10
224.58750000000012
20
80.962500000000048
30
0
11
227.10000000000005
21
80.962500000000247
31
0
0
ARC
5
129
100
AcDbEntity
8
0
100
AcDbCircle
10
224.58750000000012
20
80.462499999999935
30
1.1102230246251565e-15
40
0.50000000000000711
210
0
220
-0
230
1
100
AcDbArc
50
90
51
180
0
LWPOLYLINE
5
130
100
AcDbEntity
8
0
100
AcDbPolyline
90
4
70
1
43
0.0
10
0
20
0
10
19.050000000000004
20
0
10
19.050000000000004
20
19.050000000000004
10
0
20
19.050000000000004
0
LWPOLYLINE
5
131
100
AcDbEntity
8
0
100
AcDbPolyline
90
4
70
1
43
0.0
10
171.45000000000005
20
38.100000000000009
10
190.50000000000006
20
38.100000000000009
10
190.50000000000006
20
57.150000000000006
10
171.45000000000005
20
57.150000000000006
0
ENDSEC
0
SECTION
2
OBJECTS
0
DICTIONARY
5
C
100
AcDbDictionary
3
ACAD_GROUP
350
D
3
ACAD_MLINESTYLE
350
17
0
DICTIONARY
5
D
100
AcDbDictionary
0
DICTIONARY
5
1A
330
C
100
AcDbDictionary
0
DICTIONARY
5
17
100
AcDbDictionary
0
ENDSEC
0
EOF
